<svg xmlns="http://www.w3.org/2000/svg" width="84" height="84" viewBox="0 0 84 84"><g transform="translate(-11956 -745)"><rect width="84" height="84" transform="translate(11956 745)" fill="none"/><path d="M24.93,2a1.027,1.027,0,0,0-.326.055L3.672,9.342a1,1,0,0,0-.664,1.064L6.316,37.529a1,1,0,0,0,.514.758l17.648,9.592a1,1,0,0,0,.957,0l17.738-9.723a1,1,0,0,0,.512-.756l3.307-27.121a1,1,0,0,0-.672-1.068L25.254,2.053A1.009,1.009,0,0,0,24.93,2ZM25,7,38,35H33.563l-2.781-5.992H19.219L16.438,35H12Zm0,9.5L21.08,25h7.84Z" transform="translate(11973 761.998)"/></g></svg>