<svg xmlns="http://www.w3.org/2000/svg" width="84" height="84" viewBox="0 0 84 84"><g transform="translate(-11956 -745)"><rect width="84" height="84" transform="translate(11956 745)" fill="none"/><path d="M42.894,21.651a5.383,5.383,0,0,1-.993,3.031l-20.93-5.765,7.014,12.307a44.3,44.3,0,0,1-6.538.475C9.6,31.7,0,27.2,0,21.651S9.6,11.6,21.447,11.6,42.894,16.1,42.894,21.651ZM.8,27.066l.649,4.668c6.648,6.909,16.473,7.554,26.249,6.8l.22-5.61C15.865,34.426,5.742,31.806.8,27.066Zm28.875,3.712-.168,3.68L39.689,37.74l.778-4.549L28.933,29.5Zm-2.263,14.9.194-5.223c-10.4.389-20.139-.492-25.848-6.489l.55,3.955C9.251,45.034,17.863,46.414,27.413,45.679ZM24.436,21.61l3.228,5.664,13.042,3.982.894-4.919ZM29.428,36.2l-.26,5.693,9.179,3.879,1.017-6.114ZM2.664,40.475l.132.949s.031,5.208,6.852,8.772,17.514,2.028,17.514,2.028l.175-4.624C17.186,47.979,8.5,46.485,2.664,40.475Z" transform="translate(11977 755.396)"/></g></svg>