<svg xmlns="http://www.w3.org/2000/svg" width="84" height="84" viewBox="0 0 84 84"><g transform="translate(-11956 -745)"><rect width="84" height="84" transform="translate(11956 745)" fill="none"/><path d="M14.351,43.688A8.35,8.35,0,0,1,9.4,36.726,9.824,9.824,0,0,1,13.863,29a3.532,3.532,0,0,0,.269,3.221A2.961,2.961,0,0,0,17.146,33.4a3.088,3.088,0,0,0,1.2-5.3,6.831,6.831,0,0,1-2.462-6.259,6.443,6.443,0,0,1,2-3.25c-.741,1.97,1.337,3.9,2.738,4.865a71.57,71.57,0,0,1,7.138,4.884A9.615,9.615,0,0,1,31.4,36.534a9.077,9.077,0,0,1-6.156,7.155c6.457-1.436,13.12-6.57,13.248-13.852A15.088,15.088,0,0,0,29.578,16.4h-.235a2.3,2.3,0,0,1,.162.9,4.066,4.066,0,0,0,0-.6,2.941,2.941,0,0,1,0,.71,3.09,3.09,0,0,1-5.418,1.2c-2.134-2.731,0-5.838.355-8.848A11.227,11.227,0,0,0,19.794.011c1.557,2.6-.52,6.009-2.028,7.951s-3.691,3.385-5.477,5.078a44.755,44.755,0,0,0-5.254,5.845A17.789,17.789,0,0,0,3.394,33.818,14.214,14.214,0,0,0,14.345,43.7h.029Z" transform="translate(11976.987 764.989)"/></g></svg>