<svg xmlns="http://www.w3.org/2000/svg" width="84" height="84" viewBox="0 0 84 84"><g transform="translate(-11956 -745)"><rect width="84" height="84" transform="translate(11956 745)" fill="none"/><path d="M23.146,2s.021,2.081,0,2.777a9.662,9.662,0,0,1-.771,3.769,4.968,4.968,0,0,1-2.531,2.789C10.687,14.117,5,21.338,5,30.182A21.162,21.162,0,0,0,26.348,51.1,21.162,21.162,0,0,0,47.7,30.182c0-9.557-6.8-17.387-16.924-19.505l-.029,0c-.555-.15-1.86-.246-5.462-5.47C24.734,4.41,23.146,2,23.146,2Zm-1.5,23.483c3.152,0,5.712,1.651,7.768,2.977,1.222.788,2.352,1.53,3.077,1.509.813,0,2.4-1.026,3.678-1.847,1.68-1.084,3.269-2.106,4.587-2.106,2.581,0,3.736,2.2,3.736,4.374a10.037,10.037,0,0,1-1.718,5.454c-1.142,1.489-1.964,2.381-3.807,2.231-1.076-.079-2.147-1.084-3.5-2.352-.934-.876-2.347-2.2-2.985-2.235-.675-.038-1.73.625-2.952,1.388a19.671,19.671,0,0,1-8.848,3.411c-.233.021-.492.033-.763.033a7.694,7.694,0,0,1-4.09-1.063,5.113,5.113,0,0,1-2.289-4.732C13.539,28.51,17.029,25.483,21.649,25.483Zm0,2.135c-3.407,0-5.975,2.11-5.975,4.908,0,1.547.338,2.289,1.338,2.956a6.042,6.042,0,0,0,3.469.68A17.525,17.525,0,0,0,28.4,33.067a17.667,17.667,0,0,1,2.4-1.343,18.161,18.161,0,0,1-2.548-1.472C26.34,29.019,24.176,27.618,21.649,27.618Zm19.109.534c-.688,0-2.21.98-3.436,1.768a19.418,19.418,0,0,1-3.336,1.872,15.862,15.862,0,0,1,2.935,2.368,10.13,10.13,0,0,0,2.218,1.785c.68.063.9-.05,1.947-1.4a7.907,7.907,0,0,0,1.272-4.153C42.359,29.719,42.2,28.151,40.758,28.151Zm-8.427,9.073a4.755,4.755,0,0,1,4.553,2.819,1.067,1.067,0,0,1-.613,1.38,1.04,1.04,0,0,1-.384.071,1.071,1.071,0,0,1-1-.684,2.633,2.633,0,0,0-2.56-1.451,2.9,2.9,0,0,0-2.844,1.484A1.069,1.069,0,0,1,28.1,41.4a1.053,1.053,0,0,1-.579-1.372A5,5,0,0,1,32.331,37.224ZM34.683,42.6a1.069,1.069,0,0,1,.8,1.935,9.865,9.865,0,0,1-5.8,1.926,10.6,10.6,0,0,1-1.122-.063,8.4,8.4,0,0,1-5.078-1.964,1.067,1.067,0,0,1,1.493-1.526A6.536,6.536,0,0,0,28.8,44.279a7.731,7.731,0,0,0,5.491-1.514A1.051,1.051,0,0,1,34.683,42.6Z" transform="translate(11971.652 760.45)"/></g></svg>