<svg width="84" height="84" viewBox="0 0 84 84" fill="none" xmlns="http://www.w3.org/2000/svg">
<path d="M20 20V64H64V20H20ZM43.957 52.9872C43.957 58.3977 41.3349 60.2012 37.4465 60.2012C36.4303 60.1998 35.4205 60.0401 34.4535 59.7279L34.8884 56.8372C35.5963 57.0797 36.3401 57.2008 37.0884 57.1953C39.1349 57.1953 40.3756 56.2744 40.3756 52.8721V40.286H43.957V52.9872ZM52.2965 60.1756C50.4545 60.179 48.6385 59.7404 47.0012 58.8965L47.7942 55.9291C49.2399 56.7444 50.8671 57.1842 52.5267 57.2081C54.7907 57.2209 56.0698 56.1465 56.0698 54.5477C56.0698 52.9488 55.0977 52.2326 52.6163 51.2988C49.3802 50.1477 47.3209 48.4081 47.3209 45.607C47.3209 42.3965 49.9942 39.9791 54.2535 39.9791C55.8729 39.9297 57.4811 40.2628 58.9477 40.9512L58.0907 43.8291C56.8787 43.2128 55.5364 42.8969 54.1767 42.9081C51.9 42.9081 50.9407 44.1105 50.9407 45.2616C50.9407 46.7709 52.0791 47.4744 54.6884 48.4721C58.0907 49.7512 59.7279 51.4779 59.7279 54.2919C59.7279 57.4512 57.3488 60.1756 52.2965 60.1756Z" fill="black"/>
</svg>
