<svg xmlns="http://www.w3.org/2000/svg" width="84" height="84" viewBox="0 0 84 84"><g transform="translate(-11956 -745)"><rect width="84" height="84" transform="translate(11956 745)" fill="none"/><path d="M31.641,41.3a1.283,1.283,0,0,1-.591-.155l-1.86-1.1c-.281-.155-.145-.213-.048-.242a3.4,3.4,0,0,0,.843-.388.157.157,0,0,1,.136.01l1.434.852a.175.175,0,0,0,.174,0l5.6-3.236a.186.186,0,0,0,.087-.155V30.419a.164.164,0,0,0-.087-.155l-5.6-3.226a.175.175,0,0,0-.174,0l-5.6,3.226a.177.177,0,0,0-.087.155v6.462a.179.179,0,0,0,.087.145l1.531.882c.833.416,1.347-.078,1.347-.562V30.962A.163.163,0,0,1,29,30.8H29.7a.163.163,0,0,1,.165.165v6.384a1.545,1.545,0,0,1-1.657,1.744,2.4,2.4,0,0,1-1.288-.349L25.451,37.9a1.2,1.2,0,0,1-.591-1.017V30.419a1.164,1.164,0,0,1,.591-1.017l5.6-3.236a1.2,1.2,0,0,1,1.172,0l5.6,3.236a1.2,1.2,0,0,1,.591,1.017v6.462a1.164,1.164,0,0,1-.591,1.017l-5.6,3.236a1.072,1.072,0,0,1-.581.165Zm4.524-6.375c0-1.211-.814-1.531-2.538-1.763-1.744-.232-1.918-.349-1.918-.756,0-.339.145-.785,1.434-.785,1.153,0,1.579.252,1.753,1.027a.156.156,0,0,0,.155.126h.727a.173.173,0,0,0,.116-.046.15.15,0,0,0,.039-.126c-.116-1.337-1-1.957-2.79-1.957-1.6,0-2.548.678-2.548,1.8,0,1.23.949,1.56,2.48,1.715,1.831.184,1.976.446,1.976.8,0,.63-.5.891-1.686.891-1.482,0-1.812-.368-1.918-1.1a.16.16,0,0,0-.165-.136h-.727a.163.163,0,0,0-.165.165c0,.94.513,2.063,2.964,2.063,1.792,0,2.809-.7,2.809-1.918Zm5.28-4.853A1.075,1.075,0,1,1,40.37,29,1.066,1.066,0,0,1,41.445,30.071Zm-.174,0a.906.906,0,1,0-.911.911A.923.923,0,0,0,41.271,30.071Zm-.436.6h-.252c-.01-.058-.048-.368-.048-.378-.019-.068-.039-.106-.126-.106H40.2v.484h-.232V29.46h.417c.145,0,.426,0,.426.32a.284.284,0,0,1-.232.3c.165.01.174.116.2.271a1.354,1.354,0,0,0,.058.32Zm-.271-.852c0-.165-.116-.165-.174-.165H40.2v.339h.184a.163.163,0,0,0,.184-.174ZM14.3,16.014a.7.7,0,0,0-.358-.62L8,11.975a.772.772,0,0,0-.329-.1H7.617a.709.709,0,0,0-.329.1l-5.929,3.42a.716.716,0,0,0-.358.62l.01,9.2a.37.37,0,0,0,.174.31.342.342,0,0,0,.358,0L5.069,23.5a.728.728,0,0,0,.358-.62v-4.3a.716.716,0,0,1,.358-.62l1.5-.862a.69.69,0,0,1,.358-.1A.68.68,0,0,1,8,17.1l1.5.862a.716.716,0,0,1,.358.62v4.3a.716.716,0,0,0,.358.62l3.526,2.025a.342.342,0,0,0,.358,0,.358.358,0,0,0,.174-.31l.019-9.2ZM46.773,5.968V23.057a.716.716,0,0,1-.358.62l-5.938,3.429a.727.727,0,0,1-.717,0l-5.938-3.429a.716.716,0,0,1-.358-.62V16.2a.716.716,0,0,1,.358-.62l5.938-3.429a.727.727,0,0,1,.717,0L41.959,13a.254.254,0,0,0,.378-.213V3.682a.356.356,0,0,1,.533-.31l3.536,1.976a.7.7,0,0,1,.368.62ZM42.317,18.455a.183.183,0,0,0-.087-.155L40.2,17.119a.194.194,0,0,0-.184,0L37.977,18.3a.166.166,0,0,0-.087.155v2.354a.183.183,0,0,0,.087.155l2.034,1.172a.175.175,0,0,0,.174,0l2.034-1.172a.166.166,0,0,0,.087-.155V18.455Zm20.324-.068a.716.716,0,0,0,.358-.62V16.111a.716.716,0,0,0-.358-.62l-5.9-3.429a.727.727,0,0,0-.717,0l-5.938,3.429a.716.716,0,0,0-.358.62V22.97a.7.7,0,0,0,.358.62l5.9,3.362a.708.708,0,0,0,.707,0l3.565-1.986a.355.355,0,0,0,0-.62l-5.977-3.429a.358.358,0,0,1-.184-.31V18.455a.358.358,0,0,1,.184-.31l1.86-1.075a.342.342,0,0,1,.358,0l1.86,1.075a.379.379,0,0,1,.184.31v1.686a.364.364,0,0,0,.542.31l3.555-2.063Zm-7.488.339a.15.15,0,0,0-.068.116V20.16a.136.136,0,0,0,.068.116l1.143.659a.111.111,0,0,0,.136,0l1.143-.659a.151.151,0,0,0,.068-.116V18.843a.136.136,0,0,0-.068-.116l-1.143-.659a.111.111,0,0,0-.136,0ZM30.527,22.941v-6.82a.735.735,0,0,0-.378-.62l-5.919-3.41a.726.726,0,0,0-.717,0L17.595,15.5a.723.723,0,0,0-.378.62v6.82a.747.747,0,0,0,.387.62l5.929,3.41a.7.7,0,0,0,.717,0l5.909-3.41a.72.72,0,0,0,.349-.455.832.832,0,0,0,.019-.165Zm-7.2-12.1-.077.046h.107l-.029-.046Zm7.382,12.613-.039-.068v.087l.039-.021Z" transform="translate(11966 764.675)"/></g></svg>