<svg xmlns="http://www.w3.org/2000/svg" width="84" height="84" viewBox="0 0 84 84"><g transform="translate(-11956 -745)"><rect width="84" height="84" transform="translate(11956 745)" fill="none"/><g transform="translate(11970 506)"><g transform="translate(0 268)"><path d="M661.374,391.173h-4.566l4.066-20.911c.13-.013.237-.033.344-.033,2.944,0,5.889-.024,8.832.017a10.832,10.832,0,0,1,2.489.335,5.257,5.257,0,0,1,4.209,5.316,9.442,9.442,0,0,1-3.653,7.852,9.072,9.072,0,0,1-5.575,1.83c-1.535.051-3.072.029-4.608.021-.327,0-.475.072-.54.431C662.063,387.736,661.716,389.433,661.374,391.173Zm1.718-8.81c1.591-.062,3.073-.047,4.537-.2a4.173,4.173,0,0,0,3.836-3.1,11.576,11.576,0,0,0,.481-2.784,2.118,2.118,0,0,0-2.023-2.519c-1.671-.229-3.373-.226-5.1-.326Z" transform="translate(-621.139 -364.671)" fill-rule="evenodd"/><path d="M4.565,391.171H0l4.063-20.9c.152-.012.292-.034.432-.034,2.889,0,5.779-.022,8.667.015a10.952,10.952,0,0,1,2.437.309,5.142,5.142,0,0,1,4.3,4.942,9.114,9.114,0,0,1-6.52,9.689,14.688,14.688,0,0,1-2.814.391c-1.5.067-3,.034-4.5.026-.309,0-.441.078-.5.408C5.254,387.72,4.909,389.419,4.565,391.171Zm1.716-8.8c1.581-.061,3.063-.044,4.527-.195a4.2,4.2,0,0,0,3.878-3.2,11.626,11.626,0,0,0,.451-2.681,2.124,2.124,0,0,0-2.019-2.526c-1.671-.23-3.375-.228-5.1-.328Z" transform="translate(0 -364.676)" fill-rule="evenodd"/><path d="M354.427,268h4.53l-1.071,5.557c1.232,0,2.42-.042,3.6.012a22.055,22.055,0,0,1,3.589.331c2.467.525,3.505,2.127,3.063,4.648-.5,2.858-1.082,5.7-1.628,8.552-.1.5-.176,1.008-.3,1.5-.034.131-.214.318-.329.319-1.422.022-2.844.014-4.327.014.266-1.384.522-2.706.775-4.028.367-1.918.757-3.832,1.09-5.756.243-1.407-.3-2.1-1.734-2.167-1.458-.064-2.921-.014-4.463-.014L354.895,288.9h-4.531Z" transform="translate(-331.337 -268)" fill-rule="evenodd"/></g></g></g></svg>