<svg xmlns="http://www.w3.org/2000/svg" width="84" height="84" viewBox="0 0 84 84"><g transform="translate(-11956 -745)"><rect width="84" height="84" transform="translate(11956 745)" fill="none"/><path d="M37.928,3.985a7.836,7.836,0,0,0-2.664.414,18.12,18.12,0,0,0-5.641,3.306c-.761.619-1.529,1.327-2.3,2.078-.754-.732-1.506-1.423-2.25-2.028a18.088,18.088,0,0,0-5.63-3.3,6.186,6.186,0,0,0-5.067.248,6.184,6.184,0,0,0-2.748,4.264,18.1,18.1,0,0,0,.043,6.529c.138.858.337,1.758.56,2.675-.841.255-1.659.523-2.416.819A17.635,17.635,0,0,0,4.258,22.22,6.235,6.235,0,0,0,1.99,26.729a6.231,6.231,0,0,0,2.268,4.507,17.635,17.635,0,0,0,5.557,3.235c.81.316,1.687.6,2.593.871a35.527,35.527,0,0,0-.77,3.518A18.1,18.1,0,0,0,11.6,45.4a6.208,6.208,0,0,0,2.757,4.281,6.211,6.211,0,0,0,5.087.248,18.1,18.1,0,0,0,5.639-3.3c.754-.613,1.517-1.313,2.28-2.056.767.747,1.534,1.451,2.291,2.067a18.093,18.093,0,0,0,5.632,3.3,6.181,6.181,0,0,0,5.065-.248,6.183,6.183,0,0,0,2.748-4.263,18.1,18.1,0,0,0-.045-6.529,35.464,35.464,0,0,0-.772-3.526c.936-.276,1.84-.569,2.675-.894a17.635,17.635,0,0,0,5.557-3.235,6.231,6.231,0,0,0,2.268-4.507A6.235,6.235,0,0,0,50.51,22.22a17.635,17.635,0,0,0-5.557-3.233c-.769-.3-1.6-.572-2.453-.83.226-.923.426-1.829.565-2.692a18.115,18.115,0,0,0,.043-6.538,6.205,6.205,0,0,0-2.759-4.279A5.126,5.126,0,0,0,37.928,3.985Zm-.1,2.246a2.9,2.9,0,0,1,1.395.371A3.942,3.942,0,0,1,40.9,9.4a16.209,16.209,0,0,1-.067,5.71c-.126.782-.308,1.61-.515,2.459a51.19,51.19,0,0,0-7.365-1.183A53.137,53.137,0,0,0,28.9,11.4c.725-.708,1.446-1.37,2.149-1.942a16.2,16.2,0,0,1,4.91-2.912A5.62,5.62,0,0,1,37.827,6.231Zm-20.943.006a5.623,5.623,0,0,1,1.875.315,16.208,16.208,0,0,1,4.919,2.914c.689.56,1.394,1.208,2.1,1.9A53.317,53.317,0,0,0,21.7,16.4,50.992,50.992,0,0,0,14.36,17.59c-.206-.845-.386-1.67-.511-2.449a16.219,16.219,0,0,1-.065-5.719,3.96,3.96,0,0,1,1.694-2.811A2.923,2.923,0,0,1,16.884,6.237Zm10.473,6.751c.9.978,1.8,2.049,2.69,3.2-.876-.037-1.763-.058-2.664-.058-.919,0-1.823.022-2.716.06C25.56,15.038,26.459,13.967,27.358,12.988Zm.026,5.371c1.5,0,2.963.062,4.386.166.979,1.406,1.936,2.9,2.847,4.477.8,1.387,1.526,2.773,2.186,4.141-.667,1.386-1.4,2.79-2.216,4.2-.715,1.238-1.461,2.414-2.22,3.548-1.607.134-3.272.209-4.983.209-1.752,0-3.455-.079-5.1-.22-.746-1.118-1.48-2.278-2.184-3.5-.81-1.4-1.544-2.8-2.209-4.186.668-1.391,1.405-2.8,2.22-4.212.907-1.571,1.861-3.054,2.834-4.453C24.386,18.423,25.866,18.36,27.384,18.36Zm7.229.442a47.522,47.522,0,0,1,5.115.92,49.668,49.668,0,0,1-1.757,4.828c-.457-.881-.931-1.765-1.442-2.651C35.91,20.826,35.266,19.8,34.613,18.8Zm-14.575.017c-.639.981-1.268,1.985-1.875,3.037-.518.9-1,1.793-1.463,2.686a49.659,49.659,0,0,1-1.744-4.8A47.366,47.366,0,0,1,20.038,18.819Zm21.874,1.489c.782.237,1.538.484,2.231.754A15.721,15.721,0,0,1,49,23.858a3.984,3.984,0,0,1,1.55,2.871A3.984,3.984,0,0,1,49,29.6a15.721,15.721,0,0,1-4.856,2.8c-.77.3-1.616.574-2.5.832a54.646,54.646,0,0,0-2.382-6.033A53.444,53.444,0,0,0,41.912,20.308Zm-29.092.011a53.356,53.356,0,0,0,2.612,6.818A54.681,54.681,0,0,0,13.037,33.2c-.849-.252-1.666-.517-2.412-.808a15.722,15.722,0,0,1-4.856-2.8,3.984,3.984,0,0,1-1.55-2.871,3.984,3.984,0,0,1,1.55-2.871,15.722,15.722,0,0,1,4.856-2.8C11.307,20.8,12.05,20.552,12.819,20.319ZM27.384,21.66A5.518,5.518,0,1,0,32.9,27.177,5.535,5.535,0,0,0,27.384,21.66Zm0,2.207a3.311,3.311,0,1,1-3.311,3.311A3.294,3.294,0,0,1,27.384,23.867ZM38,29.786c.579,1.37,1.082,2.71,1.5,4-1.327.308-2.74.567-4.227.772.428-.683.851-1.378,1.263-2.093C37.057,31.571,37.538,30.676,38,29.786Zm-21.274,0c.464.9.947,1.8,1.468,2.7q.611,1.059,1.246,2.069c-1.482-.205-2.891-.466-4.214-.774C15.646,32.491,16.149,31.154,16.725,29.788Zm-2.136,6.134A50.646,50.646,0,0,0,21.047,37a54.423,54.423,0,0,0,4.736,5.949c-.718.7-1.43,1.358-2.127,1.925a16.193,16.193,0,0,1-4.912,2.91,3.942,3.942,0,0,1-3.263-.056,3.94,3.94,0,0,1-1.679-2.8,16.186,16.186,0,0,1,.065-5.708A33.063,33.063,0,0,1,14.589,35.922Zm25.553.009a33.032,33.032,0,0,1,.729,3.313,16.207,16.207,0,0,1,.065,5.716,3.964,3.964,0,0,1-1.692,2.813,3.964,3.964,0,0,1-3.283.06,16.221,16.221,0,0,1-4.919-2.916c-.7-.571-1.419-1.232-2.143-1.938A54.329,54.329,0,0,0,33.667,37,50.741,50.741,0,0,0,40.142,35.931ZM23.926,37.222c1.133.062,2.281.1,3.457.1,1.137,0,2.248-.039,3.345-.1a50.838,50.838,0,0,1-3.4,4.128A50.957,50.957,0,0,1,23.926,37.222Z" transform="translate(11971.01 760.019)"/></g></svg>