<svg xmlns="http://www.w3.org/2000/svg" width="84" height="84" viewBox="0 0 84 84"><g transform="translate(-11956 -745)"><rect width="84" height="84" transform="translate(11956 745)" fill="none"/><path d="M22.84,2.035c-3.181-.087-6.514,4.156-8.311,10.686l-5.645,1.84a1,1,0,0,0-.684.822L4.756,42.193A1,1,0,0,0,5.563,43.3l24.068,4.58L31.488,7.2l-1.111.361c-.663-2.444-1.9-3.981-3.537-4.33A3.1,3.1,0,0,0,25.4,3.26a3.747,3.747,0,0,0-1.93-1.15A3.472,3.472,0,0,0,22.84,2.035Zm-.119,2a1.469,1.469,0,0,1,.336.029,1.533,1.533,0,0,1,.5.215c-1.985,1.7-3.5,4.917-4.3,6.9l-2.4.781C18.483,6.942,20.993,4.077,22.721,4.037Zm3.936,1.23c.768.317,1.415,1.349,1.82,2.91l-1.024.334A13.059,13.059,0,0,0,26.656,5.268Zm-1.9.65a11.335,11.335,0,0,1,.766,3.223l-3.73,1.215A14.21,14.21,0,0,1,24.756,5.918ZM33.482,7.4l-1.846,40.41,12.58-2.783A1,1,0,0,0,44.99,43.9c-1.6-11.1-4.64-32.2-4.7-32.621a1.017,1.017,0,0,0-.076-.291,1.682,1.682,0,0,0-1.023-.936A1.123,1.123,0,0,0,38.9,10c-.222-.009-2.194-.163-3.033-.229-.686-.7-2-2.043-2.346-2.352C33.507,7.413,33.493,7.406,33.482,7.4ZM22.719,18.023a6.549,6.549,0,0,1,3.209.678.5.5,0,0,1,.215.58l-1.512,4.66a.5.5,0,0,1-.715.287,6.522,6.522,0,0,0-2.76-.689c-1.783,0-2.049.912-2.049,1.455,0,.589.773,1.173,1.67,1.846,1.587,1.192,3.76,2.824,3.76,6.1,0,4.1-2.555,6.973-6.213,6.973a8.252,8.252,0,0,1-6.342-2.7.5.5,0,0,1-.088-.453l1.063-3.572a.5.5,0,0,1,.344-.338.513.513,0,0,1,.469.1c.02.018,1.957,1.711,3.492,1.711a1.069,1.069,0,0,0,1.129-1.094c0-.98-.717-1.577-1.625-2.332-1.254-1.042-2.812-2.339-2.812-5.154,0-3.881,2.705-8.057,8.646-8.057Z" transform="translate(11973.252 761.966)"/></g></svg>