<svg width="84" height="84" viewBox="0 0 84 84" fill="none" xmlns="http://www.w3.org/2000/svg">
<path d="M20 20V64H64V20H20ZM45.5444 43.2222H39.8122V60.04H36.1456V43.2222H30.4744V40.1178H45.5444V43.2222ZM52.1322 60.3333C50.263 60.3696 48.413 59.9501 46.7422 59.1111L47.5489 56.1044C49.0278 56.9052 50.6827 57.3252 52.3644 57.3267C54.6867 57.3267 56.0311 56.2389 56.0311 54.6133C56.0311 52.9878 55.0289 52.1689 52.4989 51.3011C49.2111 50.14 47.1089 48.38 47.1089 45.52C47.1089 42.2567 49.8344 39.8 54.1611 39.8C55.8094 39.7532 57.4459 40.0922 58.94 40.79L58.0722 43.7233C56.8409 43.0876 55.4735 42.7604 54.0878 42.77C51.7778 42.77 50.8 43.9922 50.8 45.2144C50.8 46.7422 51.9489 47.4633 54.6011 48.4778C58.0722 49.7978 59.7344 51.5333 59.7344 54.3933C59.6856 57.5711 57.2656 60.3333 52.1322 60.3333Z" fill="black"/>
</svg>
