<svg xmlns="http://www.w3.org/2000/svg" width="84" height="84" viewBox="0 0 84 84"><g transform="translate(-11956 -745)"><rect width="84" height="84" transform="translate(11956 745)" fill="none"/><g transform="translate(11968 764)"><path d="M4.05,0H55.763a4.059,4.059,0,0,1,4.05,4.05V42.44a4.062,4.062,0,0,1-4.05,4.05H4.05A4.059,4.059,0,0,1,0,42.44V4.05A4.059,4.059,0,0,1,4.05,0ZM6.133,13.118h47.1v20H6.133v-20Zm9.545,5.7h2.911v6.055a5.4,5.4,0,0,1-.263,1.7,3.751,3.751,0,0,1-.818,1.4,3.227,3.227,0,0,1-1.168.842,5.536,5.536,0,0,1-2.04.341,12.2,12.2,0,0,1-1.5-.1,3.655,3.655,0,0,1-1.363-.414,3.417,3.417,0,0,1-1-.876A3.313,3.313,0,0,1,9.813,26.6a6.5,6.5,0,0,1-.273-1.718V18.823h2.911v6.2a1.823,1.823,0,0,0,.428,1.295,1.533,1.533,0,0,0,1.188.467,1.539,1.539,0,0,0,1.178-.462,1.855,1.855,0,0,0,.428-1.3v-6.2Zm4.955,0h2.925V28.991H20.634V18.823Zm6.425-.17h1.324L26,29.161H24.678l2.38-10.509Zm8.387.17h2.911v6.055a5.4,5.4,0,0,1-.263,1.7,3.751,3.751,0,0,1-.818,1.4,3.227,3.227,0,0,1-1.168.842,5.536,5.536,0,0,1-2.04.341,12.2,12.2,0,0,1-1.5-.1,3.655,3.655,0,0,1-1.363-.414,3.417,3.417,0,0,1-1-.876A3.313,3.313,0,0,1,29.58,26.6a6.477,6.477,0,0,1-.268-1.718V18.823h2.911v6.2a1.823,1.823,0,0,0,.428,1.295,1.737,1.737,0,0,0,2.366,0,1.855,1.855,0,0,0,.428-1.3v-6.2Zm4.191,0h3.217l1.67,3.13,1.621-3.13h3.174l-2.93,4.926L49.6,28.991H46.315l-1.85-3.266L42.6,28.991H39.344l3.252-5.3-2.959-4.868ZM32.549,40.732a1.71,1.71,0,0,1,0-3.407h19.3a1.71,1.71,0,0,1,0,3.407Zm-25.267,0a1.711,1.711,0,0,1,0-3.407H25.175a1.711,1.711,0,0,1,0,3.407ZM57.423,9.784H2.575V42.834a1.114,1.114,0,0,0,1.12,1.12H56.283a1.119,1.119,0,0,0,.793-.326,1.1,1.1,0,0,0,.326-.793V9.784ZM51.908,3a2,2,0,1,1-2,2,2,2,0,0,1,2-2ZM38.356,3a2,2,0,1,1-2,2,2,2,0,0,1,2-2Zm6.776,0a2,2,0,1,1-2,2,2,2,0,0,1,2-2Z" fill-rule="evenodd"/></g></g></svg>