<svg xmlns="http://www.w3.org/2000/svg" width="84" height="84" viewBox="0 0 84 84"><g transform="translate(-11956 -745)"><rect width="84" height="84" transform="translate(11956 745)" fill="none"/><path d="M6.3,4A6.3,6.3,0,0,0,0,10.3V24.988a6.3,6.3,0,0,0,6.3,6.3h15.29l12.613,6.2a1.049,1.049,0,0,0,1.435-1.25l-2.054-4.952H44.075a6.3,6.3,0,0,0,6.3-6.3V10.3a6.3,6.3,0,0,0-6.3-6.3ZM21.508,8.2a1.541,1.541,0,0,1,.607.123,1.567,1.567,0,0,1,.849,2.054c-1.354,3.251-2.037,8.345-2.037,15.138a1.574,1.574,0,0,1-2.812.972c-1.967-2.5-3.5-6.557-4.493-9.707L9.854,26.1a1.6,1.6,0,0,1-1.554.98,1.576,1.576,0,0,1-1.427-1.156A84.8,84.8,0,0,1,4.2,9.837,1.566,1.566,0,0,1,5.706,8.2a1.542,1.542,0,0,1,1.636,1.5A69.525,69.525,0,0,0,8.8,20.319l3.648-9.039a1.539,1.539,0,0,1,1.586-.976,1.574,1.574,0,0,1,1.41,1.222,61.386,61.386,0,0,0,2.529,8.1A33.877,33.877,0,0,1,20.062,9.169,1.575,1.575,0,0,1,21.508,8.2Zm7.444,2.1a3.931,3.931,0,0,1,.808.078c2.817.588,4.4,4.234,3.62,8.3a8.628,8.628,0,0,1-3.288,5.546,4.324,4.324,0,0,1-2.4.771,3.948,3.948,0,0,1-.783-.078c-2.814-.588-4.4-4.233-3.62-8.3a8.628,8.628,0,0,1,3.288-5.546A4.334,4.334,0,0,1,28.953,10.3Zm12.593,0a3.931,3.931,0,0,1,.808.078c2.817.588,4.4,4.234,3.62,8.3a8.628,8.628,0,0,1-3.288,5.546,4.324,4.324,0,0,1-2.4.771,3.948,3.948,0,0,1-.783-.078c-2.814-.588-4.4-4.233-3.62-8.3a8.628,8.628,0,0,1,3.288-5.546A4.334,4.334,0,0,1,41.545,10.3ZM28.981,13.445a1.225,1.225,0,0,0-.66.242,5.666,5.666,0,0,0-1.943,3.525c-.5,2.565.366,4.444,1.176,4.612a1.069,1.069,0,0,0,.8-.225,5.666,5.666,0,0,0,1.943-3.525c.493-2.565-.366-4.444-1.177-4.612A.568.568,0,0,0,28.981,13.445Zm12.593,0a1.225,1.225,0,0,0-.66.242,5.666,5.666,0,0,0-1.943,3.525c-.5,2.565.366,4.444,1.176,4.612a1.066,1.066,0,0,0,.8-.225,5.666,5.666,0,0,0,1.943-3.525c.493-2.565-.366-4.444-1.177-4.612A.568.568,0,0,0,41.574,13.445Z" transform="translate(11973 766)"/></g></svg>