<svg xmlns="http://www.w3.org/2000/svg" width="84" height="84" viewBox="0 0 84 84"><g transform="translate(-11956 -745)"><rect width="84" height="84" transform="translate(11956 745)" fill="none"/><path d="M25.387,2A23.387,23.387,0,1,0,48.774,25.387,23.413,23.413,0,0,0,25.387,2Zm0,5.084a18.217,18.217,0,0,1,11.436,4.022A3.588,3.588,0,0,0,35.251,14.1c0,1.627.915,3.051,1.932,4.677a10.049,10.049,0,0,1,1.627,5.491,18.912,18.912,0,0,1-1.525,6.508l-2.034,6.711-7.22-21.557c1.22-.1,2.339-.2,2.339-.2a.817.817,0,0,0-.1-1.627h-.1s-3.254.305-5.389.305c-1.932,0-5.288-.305-5.288-.305h-.1c-1.017,0-1.119,1.627-.1,1.627,0,0,1.017.1,2.135.2l3.152,8.541L20.2,37.589,12.88,15.829c1.22-.1,2.339-.2,2.339-.2a.817.817,0,0,0-.1-1.627h-.1s-2.188.205-4.154.279A18.249,18.249,0,0,1,25.387,7.084Zm-18.3,18.3a18.3,18.3,0,0,1,.775-5.261l7.549,20.6A18.274,18.274,0,0,1,7.084,25.387Zm12.891,17.49,5.412-15.863,5.781,15.731a18.278,18.278,0,0,1-11.192.131Zm15.889-2.491h0L41.25,24.777a21.4,21.4,0,0,0,1.413-5.393,18.23,18.23,0,0,1-6.8,21Z" transform="translate(11973 762)"/></g></svg>